<?xml version="1.0" standalone="no"?>
<!DOCTYPE svg PUBLIC "-//W3C//DTD SVG 20010904//EN"
 "http://www.w3.org/TR/2001/REC-SVG-20010904/DTD/svg10.dtd">
<svg version="1.0" xmlns="http://www.w3.org/2000/svg"
 width="706.000000pt" height="706.000000pt" viewBox="0 0 706.000000 706.000000"
 preserveAspectRatio="xMidYMid meet">
<metadata>
Created by potrace 1.14, written by Peter Selinger 2001-2017
</metadata>
<g transform="translate(0.000000,706.000000) scale(0.100000,-0.100000)"
fill="#000000" stroke="none">
<path d="M6865 6390 c-11 -5 -146 -57 -300 -116 -690 -263 -1625 -677 -2720
-1203 l-210 -101 1085 0 1085 0 76 78 c182 186 440 498 638 772 105 144 319
458 370 543 23 38 17 45 -24 27z"/>
<path d="M6930 5936 c-700 -1040 -1486 -1777 -2405 -2252 -694 -359 -1400
-556 -2290 -641 -237 -22 -1030 -25 -1269 -5 -81 7 -150 11 -153 8 -6 -6 14
-211 33 -326 75 -460 292 -925 657 -1415 126 -168 320 -405 333 -405 7 0 126
40 266 89 1526 538 2621 1102 3418 1760 162 134 511 485 624 627 400 504 625
999 760 1674 45 227 153 1008 144 1045 -2 7 -55 -65 -118 -159z"/>
<path d="M2865 4594 l-210 -104 1311 0 1311 0 104 86 c57 48 113 95 124 105
19 19 -5 19 -1205 18 l-1225 -1 -210 -104z"/>
<path d="M1369 3848 l-736 -372 57 -42 c45 -33 83 -73 105 -111 0 -1 91 -10
201 -19 281 -24 925 -24 1189 0 1018 93 1826 353 2595 834 58 36 109 69 114
74 6 4 -620 8 -1390 8 l-1399 0 -736 -372z"/>
<path d="M195 3280 c-95 -17 -195 -66 -195 -95 0 -20 58 -60 115 -80 75 -26
207 -31 284 -11 73 19 139 52 155 79 35 59 -213 133 -359 107z"/>
<path d="M475 2833 c-56 -16 -263 -23 -336 -10 l-46 8 13 -101 c83 -641 406
-1364 798 -1788 116 -125 273 -222 359 -222 25 0 271 74 285 86 2 1 -41 58
-95 126 -480 596 -749 1118 -858 1664 -13 67 -27 151 -31 188 -8 74 -6 73 -89
49z"/>
</g>
</svg>
